<?xml version="1.0" encoding="iso-8859-1"?>
<!-- Uploaded to: SVG Repo, www.svgrepo.com, Generator: SVG Repo Mixer Tools -->
<!DOCTYPE svg PUBLIC "-//W3C//DTD SVG 1.1//EN" "http://www.w3.org/Graphics/SVG/1.1/DTD/svg11.dtd">
<svg fill="#000000" version="1.1" id="Capa_1" xmlns="http://www.w3.org/2000/svg" xmlns:xlink="http://www.w3.org/1999/xlink" 
	 width="800px" height="800px" viewBox="0 0 446.613 446.613"
	 xml:space="preserve">
<g>
	<g>
		<path d="M129.448,446.613h187.717c16.712,0,30.306-13.604,30.306-30.315V30.305C347.471,13.596,333.877,0,317.165,0H129.448
			c-16.709,0-30.305,13.596-30.305,30.305v385.992C99.143,433.009,112.739,446.613,129.448,446.613z M110.992,30.305
			c0-10.168,8.279-18.456,18.456-18.456h187.717c10.177,0,18.459,8.287,18.459,18.456v385.992c0,10.187-8.282,18.464-18.459,18.464
			H129.448c-10.176,0-18.456-8.277-18.456-18.464V30.305z"/>
		<path d="M125.68,394.066h195.254c1.64,0,2.965-1.325,2.965-2.96V52.25c0-1.635-1.325-2.963-2.965-2.963H125.68
			c-1.635,0-2.963,1.328-2.963,2.963v338.866C122.717,392.741,124.045,394.066,125.68,394.066z M136.542,55.213h173.529
			c4.362,0,7.901,3.54,7.901,7.901V380.25c0,4.361-3.539,7.901-7.901,7.901H136.542c-4.362,0-7.901-3.54-7.901-7.901V63.114
			C128.641,58.745,132.18,55.213,136.542,55.213z"/>
		<path d="M206.646,31.237h33.324c1.636,0,2.961-1.328,2.961-2.963c0-1.635-1.325-2.963-2.961-2.963h-33.324
			c-1.635,0-2.963,1.328-2.963,2.963C203.683,29.91,205.011,31.237,206.646,31.237z"/>
		<path d="M240.371,400.845h-34.126c-7.008,0-12.713,5.703-12.713,12.705v2.036c0,7.008,5.705,12.711,12.713,12.711h34.126
			c7.008,0,12.71-5.708,12.71-12.711v-2.036C253.092,406.542,247.379,400.845,240.371,400.845z M247.166,415.586
			c0,3.748-3.047,6.789-6.785,6.789h-34.129c-3.745,0-6.787-3.052-6.787-6.789v-2.036c0-3.737,3.049-6.779,6.787-6.779h34.129
			c3.743,0,6.785,3.052,6.785,6.779V415.586z"/>
		<path d="M290.663,256.159l-27.984-12.426c-4.483-1.99-11.472-0.721-14.944,2.65l-8.815,8.552
			c-1.523,1.478-5.271,2.244-6.825,1.452c-5.873-2.945-15.106-8.831-25.755-20.129c-9.511-10.09-13.982-16.938-16.054-20.904
			c-0.853-1.627,0.007-5.017,1.716-6.715l7.843-7.835c3.603-3.587,5.151-9.956,3.618-14.797l-8.815-27.997
			c-1.462-4.654-6.424-9.474-12.276-9.474c-7.569,0.244-18.209,2.948-25.857,14.435c-11.644,17.466-10.989,51.057,10.379,74.867
			c19.088,21.276,47.71,45.118,48.871,46.083c1.612,1.441,16.367,14.157,38.237,14.157c2.118,0,4.312-0.127,6.557-0.392
			c24.45-2.96,33.418-18.666,36.592-27.766C299.18,264.131,295.371,258.276,290.663,256.159z M290.277,267.518
			c-2.625,7.495-10.08,20.454-30.604,22.932c-1.899,0.234-3.804,0.351-5.673,0.351c-19.128,0-32.849-11.842-33.624-12.517
			c-4.946-4.139-30.534-25.776-48.071-45.321c-18.433-20.54-19.916-50.686-9.742-65.963c5.918-8.866,14.206-10.989,20.137-11.205
			c1.953,0.025,4.377,2.427,5.001,4.395l8.823,27.987c0.703,2.252-0.165,5.817-1.831,7.482l-7.846,7.83
			c-3.476,3.476-5.616,10.301-3.001,15.254c2.305,4.392,7.155,11.852,17.189,22.5c11.377,12.07,21.386,18.428,27.792,21.652
			c4.337,2.174,11.496,0.828,15.157-2.742l8.811-8.531c1.463-1.406,5.113-2.057,6.937-1.238l27.975,12.431
			C289.343,263.542,290.852,265.858,290.277,267.518z"/>
		<path d="M217.604,191.851c-2.008,0-3.644,1.635-3.644,3.651c0,2.006,1.63,3.641,3.644,3.641c16.583,0,30.069,13.487,30.069,30.066
			c0,2.006,1.636,3.642,3.642,3.642s3.631-1.636,3.631-3.642C254.945,208.616,238.197,191.851,217.604,191.851z"/>
		<path d="M214.184,183.439c27.122,0,49.19,22.064,49.19,49.183c0,2.016,1.641,3.65,3.646,3.65s3.631-1.635,3.631-3.65
			c0-31.126-25.334-56.46-56.467-56.46c-2.008,0-3.644,1.635-3.644,3.641C210.541,181.802,212.168,183.439,214.184,183.439z"/>
	</g>
</g>
</svg>